<?xml version="1.0" encoding="UTF-8"?>
<!DOCTYPE svg PUBLIC "-//W3C//DTD SVG 1.1//EN" "http://www.w3.org/Graphics/SVG/1.1/DTD/svg11.dtd">
<svg xmlns="http://www.w3.org/2000/svg" version="1.1" width="1024px" height="1024px" style="shape-rendering:geometricPrecision; text-rendering:geometricPrecision; image-rendering:optimizeQuality; fill-rule:evenodd; clip-rule:evenodd" xmlns:xlink="http://www.w3.org/1999/xlink">
<g><path style="opacity:0.999" fill="#80b2fe" d="M 495.5,108.5 C 499.131,108.16 502.464,108.994 505.5,111C 528.027,133.527 550.527,156.027 573,178.5C 576.699,183.09 577.365,188.09 575,193.5C 556.806,211.694 538.64,229.86 520.5,248C 515.789,252.38 510.789,256.38 505.5,260C 495.44,261.884 488.273,258.05 484,248.5C 483.5,240.173 483.334,231.84 483.5,223.5C 438.87,218.742 397.87,228.575 360.5,253C 343.167,253.333 325.833,253.667 308.5,254C 274.866,259.629 253.033,278.796 243,311.5C 241.345,319.417 240.345,327.417 240,335.5C 212.298,348.247 195.632,369.58 190,399.5C 189.349,418.242 190.016,436.908 192,455.5C 188.632,459.1 184.465,460.933 179.5,461C 172.834,461.112 166.167,460.779 159.5,460C 151.519,455.544 147.519,448.711 147.5,439.5C 160.46,338.698 207.46,258.198 288.5,198C 331.168,168.843 378.168,150.509 429.5,143C 447.504,141.28 465.504,141.113 483.5,142.5C 483.09,133.75 483.59,125.084 485,116.5C 487.831,112.821 491.331,110.154 495.5,108.5 Z"/></g>
<g><path style="opacity:1" fill="#1f2d38" d="M 655.5,186.5 C 655.427,188.027 656.094,189.027 657.5,189.5C 657.5,189.833 657.5,190.167 657.5,190.5C 657.826,194.884 657.492,199.217 656.5,203.5C 654.917,205.99 653.917,208.657 653.5,211.5C 651.557,214.471 648.891,216.471 645.5,217.5C 640.547,218.329 635.547,218.663 630.5,218.5C 620.131,215.451 614.464,208.451 613.5,197.5C 617.003,178.485 628.003,171.652 646.5,177C 650.402,179.4 653.402,182.566 655.5,186.5 Z"/></g>
<g><path style="opacity:0.239" fill="#a4afab" d="M 655.5,186.5 C 656.906,186.973 657.573,187.973 657.5,189.5C 656.094,189.027 655.427,188.027 655.5,186.5 Z"/></g>
<g><path style="opacity:1" fill="#8dd25f" d="M 758.5,193.5 C 779.836,193.333 801.169,193.5 822.5,194C 831.616,197.069 837.45,203.236 840,212.5C 840.667,233.833 840.667,255.167 840,276.5C 836.729,286.105 830.229,292.272 820.5,295C 800.167,295.667 779.833,295.667 759.5,295C 748.048,291.214 741.215,283.381 739,271.5C 738.333,253.167 738.333,234.833 739,216.5C 741.321,205.138 747.821,197.472 758.5,193.5 Z"/></g>
<g><path style="opacity:1" fill="#5b6464" d="M 657.5,190.5 C 660.489,198.229 659.156,205.229 653.5,211.5C 653.917,208.657 654.917,205.99 656.5,203.5C 657.492,199.217 657.826,194.884 657.5,190.5 Z"/></g>
<g><path style="opacity:0.667" fill="#7d8585" d="M 645.5,217.5 C 640.628,220.644 635.628,220.977 630.5,218.5C 635.547,218.663 640.547,218.329 645.5,217.5 Z"/></g>
<g><path style="opacity:1" fill="#1e2c38" d="M 811.5,427.5 C 809.969,432.25 809.302,437.25 809.5,442.5C 809.057,451.039 808.057,459.372 806.5,467.5C 804.789,471.881 804.123,476.547 804.5,481.5C 802.492,489.577 801.492,497.91 801.5,506.5C 801.031,516.42 799.698,526.087 797.5,535.5C 796.043,540.598 795.376,545.931 795.5,551.5C 794.111,556.269 793.444,561.269 793.5,566.5C 793.5,567.167 793.5,567.833 793.5,568.5C 791.969,573.25 791.302,578.25 791.5,583.5C 789.969,588.25 789.302,593.25 789.5,598.5C 787.988,603.929 787.321,609.596 787.5,615.5C 786.872,623.561 785.872,631.561 784.5,639.5C 782.989,642.544 782.322,645.878 782.5,649.5C 781.325,649.281 780.325,649.614 779.5,650.5C 781.312,653.899 781.979,657.566 781.5,661.5C 781.5,662.167 781.5,662.833 781.5,663.5C 779.896,667.9 779.229,672.566 779.5,677.5C 777.969,682.25 777.302,687.25 777.5,692.5C 777.5,692.833 777.5,693.167 777.5,693.5C 775.588,700.566 774.588,707.9 774.5,715.5C 769.943,742.893 754.277,760.393 727.5,768C 725.527,768.495 723.527,768.662 721.5,768.5C 652.001,769.167 582.334,769.5 512.5,769.5C 440.474,769.656 368.474,769.156 296.5,768C 270.038,760.606 253.871,743.439 248,716.5C 245.837,701.197 244.004,685.864 242.5,670.5C 242.556,665.269 241.889,660.269 240.5,655.5C 238.25,640.915 236.583,626.248 235.5,611.5C 235.771,606.566 235.104,601.9 233.5,597.5C 232.469,591.558 231.803,585.558 231.5,579.5C 230.8,568.617 229.467,557.95 227.5,547.5C 225.969,542.75 225.302,537.75 225.5,532.5C 225.745,526.916 225.078,521.583 223.5,516.5C 222.577,512.936 222.244,509.269 222.5,505.5C 222.771,500.566 222.104,495.9 220.5,491.5C 219.656,487.901 219.323,484.234 219.5,480.5C 219.624,474.931 218.957,469.598 217.5,464.5C 217.5,464.167 217.5,463.833 217.5,463.5C 217.884,459.511 217.217,455.845 215.5,452.5C 215.5,450.833 215.5,449.167 215.5,447.5C 213.651,431.889 212.651,416.222 212.5,400.5C 218.536,373.631 235.036,357.297 262,351.5C 260.058,336.407 261.725,321.74 267,307.5C 276.165,289.014 290.998,278.181 311.5,275C 363.833,274.333 416.167,274.333 468.5,275C 488.091,278.281 503.091,288.281 513.5,305C 582.5,305.333 651.5,305.667 720.5,306C 745.937,311.104 760.937,326.437 765.5,352C 798.976,362.129 814.81,384.629 813,419.5C 812.817,422.365 812.317,425.031 811.5,427.5 Z"/></g>
<g><path style="opacity:1" fill="#df9f01" d="M 729.5,347.5 C 584.334,348.5 439.001,348.833 293.5,348.5C 293.124,339.765 293.624,331.098 295,322.5C 299.258,313.906 306.092,308.739 315.5,307C 340.333,306.833 365.167,306.667 390,306.5C 416.539,306.356 443.039,306.856 469.5,308C 482.9,313.615 491.566,323.448 495.5,337.5C 569.164,338.333 642.831,338.833 716.5,339C 722.189,339.84 726.523,342.673 729.5,347.5 Z"/></g>
<g><path style="opacity:1" fill="#c3a65f" d="M 729.5,347.5 C 730.043,347.56 730.376,347.893 730.5,348.5C 584.667,349.833 439.001,349.833 293.5,348.5C 439.001,348.833 584.334,348.5 729.5,347.5 Z"/></g>
<g><path style="opacity:1" fill="#fecd45" d="M 771.5,496.5 C 769.882,499.171 769.215,502.171 769.5,505.5C 760.924,574.849 752.091,644.183 743,713.5C 739.616,726.05 731.782,734.05 719.5,737.5C 579.472,737.828 439.472,737.495 299.5,736.5C 288.71,731.619 282.21,723.285 280,711.5C 278.283,702.226 277.116,692.893 276.5,683.5C 273.633,661.817 270.966,640.151 268.5,618.5C 268.392,613.29 267.725,608.29 266.5,603.5C 265.325,590.767 263.658,578.101 261.5,565.5C 261.556,560.269 260.889,555.269 259.5,550.5C 258.692,539.751 257.359,529.084 255.5,518.5C 251.931,485.474 248.097,452.474 244,419.5C 241.322,400.347 249.155,387.847 267.5,382C 430.833,381.333 594.167,381.333 757.5,382C 774.398,387.289 782.231,398.789 781,416.5C 777.372,443.109 774.206,469.775 771.5,496.5 Z"/></g>
<g><path style="opacity:1" fill="#1c2a35" d="M 629.5,528.5 C 629.238,529.978 629.571,531.311 630.5,532.5C 642.116,531.521 653.782,531.188 665.5,531.5C 669.09,531.544 671.59,533.211 673,536.5C 673.667,552.833 673.667,569.167 673,585.5C 671.395,589.276 668.562,591.276 664.5,591.5C 652.833,591.5 641.167,591.5 629.5,591.5C 629.5,592.5 629.5,593.5 629.5,594.5C 627.41,602.848 624.077,610.682 619.5,618C 626.846,626.352 634.679,634.519 643,642.5C 645.374,645.801 646.04,649.467 645,653.5C 634.197,665.304 623.03,676.804 611.5,688C 608.262,689.368 604.928,689.701 601.5,689C 592.682,681.016 584.016,672.85 575.5,664.5C 566.111,669.293 556.445,673.293 546.5,676.5C 545.668,687.819 545.168,699.152 545,710.5C 543.878,712.624 542.378,714.457 540.5,716C 523.567,717.624 506.567,717.957 489.5,717C 487,715.833 485.167,714 484,711.5C 483.822,699.924 483.322,688.424 482.5,677C 472.368,674.236 462.702,670.403 453.5,665.5C 444.782,671.71 436.782,678.876 429.5,687C 425.782,689.298 421.782,689.965 417.5,689C 405.582,677.418 394.082,665.584 383,653.5C 381.886,648.959 382.886,644.959 386,641.5C 393.86,633.972 401.693,626.472 409.5,619C 404.876,610.583 401.209,601.749 398.5,592.5C 385.846,591.667 373.18,591.167 360.5,591C 359.333,589.833 358.167,588.667 357,587.5C 355.362,570.258 355.029,552.925 356,535.5C 357.543,533.622 359.376,532.122 361.5,531C 373.829,530.5 386.162,530.333 398.5,530.5C 399.948,520.657 403.281,511.49 408.5,503C 402.012,495.179 394.846,488.012 387,481.5C 382.931,477.642 381.598,472.975 383,467.5C 394.476,455.692 406.309,444.192 418.5,433C 421.928,432.299 425.262,432.632 428.5,434C 436.048,442.05 444.048,449.55 452.5,456.5C 462.04,450.228 472.374,445.895 483.5,443.5C 483.333,431.162 483.5,418.829 484,406.5C 485.167,405.333 486.333,404.167 487.5,403C 505.167,402.333 522.833,402.333 540.5,403C 541.667,404.167 542.833,405.333 544,406.5C 545.46,418.733 545.96,431.066 545.5,443.5C 556.165,446.343 566.331,450.677 576,456.5C 584.488,448.679 592.988,440.846 601.5,433C 604.167,432.333 606.833,432.333 609.5,433C 620.971,443.47 632.137,454.303 643,465.5C 646.256,470.098 646.256,474.764 643,479.5C 635.292,487.375 627.459,495.042 619.5,502.5C 624.528,510.549 627.861,519.216 629.5,528.5 Z"/></g>
<g><path style="opacity:0.361" fill="#848888" d="M 212.5,400.5 C 212.651,416.222 213.651,431.889 215.5,447.5C 212.096,431.954 211.096,416.287 212.5,400.5 Z"/></g>
<g><path style="opacity:0.608" fill="#848a85" d="M 811.5,427.5 C 811.556,432.731 810.889,437.731 809.5,442.5C 809.302,437.25 809.969,432.25 811.5,427.5 Z"/></g>
<g><path style="opacity:0.561" fill="#8a8b89" d="M 215.5,452.5 C 217.217,455.845 217.884,459.511 217.5,463.5C 216.313,460.054 215.646,456.387 215.5,452.5 Z"/></g>
<g><path style="opacity:0.392" fill="#8d938f" d="M 217.5,464.5 C 218.957,469.598 219.624,474.931 219.5,480.5C 218.194,475.384 217.527,470.051 217.5,464.5 Z"/></g>
<g><path style="opacity:0.694" fill="#717776" d="M 806.5,467.5 C 806.468,472.391 805.801,477.057 804.5,481.5C 804.123,476.547 804.789,471.881 806.5,467.5 Z"/></g>
<g><path style="opacity:0.714" fill="#7a807b" d="M 804.5,481.5 C 804.321,490.068 803.321,498.401 801.5,506.5C 801.492,497.91 802.492,489.577 804.5,481.5 Z"/></g>
<g><path style="opacity:0.58" fill="#7c8282" d="M 220.5,491.5 C 222.104,495.9 222.771,500.566 222.5,505.5C 221.199,501.057 220.532,496.391 220.5,491.5 Z"/></g>
<g><path style="opacity:1" fill="#fecd45" d="M 504.5,501.5 C 534.829,499.407 556.329,512.074 569,539.5C 577.132,568.436 569.299,591.936 545.5,610C 513.104,626.364 485.938,620.197 464,591.5C 448.027,558.227 454.86,530.727 484.5,509C 490.878,505.379 497.545,502.879 504.5,501.5 Z"/></g>
<g><path style="opacity:1" fill="#bea869" d="M 771.5,496.5 C 771.324,499.727 770.657,502.727 769.5,505.5C 769.215,502.171 769.882,499.171 771.5,496.5 Z"/></g>
<g><path style="opacity:1" fill="#6d716c" d="M 180.5,511.5 C 174.346,511.1 168.346,511.767 162.5,513.5C 162.611,512.883 162.944,512.383 163.5,512C 169.277,509.268 174.943,509.102 180.5,511.5 Z"/></g>
<g><path style="opacity:0.827" fill="#636b69" d="M 860.5,514.5 C 853.404,511.43 846.071,510.763 838.5,512.5C 844.006,509.293 849.672,508.793 855.5,511C 857.584,511.697 859.251,512.864 860.5,514.5 Z"/></g>
<g><path style="opacity:1" fill="#1f2c37" d="M 180.5,511.5 C 187.723,513.056 192.39,517.389 194.5,524.5C 195.229,529.13 195.563,533.797 195.5,538.5C 193.671,545.663 189.338,550.663 182.5,553.5C 176.508,554.774 170.508,554.774 164.5,553.5C 155.953,549.433 151.62,542.599 151.5,533C 151.222,524.147 154.888,517.647 162.5,513.5C 168.346,511.767 174.346,511.1 180.5,511.5 Z"/></g>
<g><path style="opacity:1" fill="#1d2a35" d="M 860.5,514.5 C 864.238,516.912 866.905,520.246 868.5,524.5C 869.768,530.175 869.768,535.842 868.5,541.5C 866.658,547.192 862.991,551.192 857.5,553.5C 852.203,554.275 846.87,554.608 841.5,554.5C 829.146,549.807 823.979,540.807 826,527.5C 827.846,520.423 832.013,515.423 838.5,512.5C 846.071,510.763 853.404,511.43 860.5,514.5 Z"/></g>
<g><path style="opacity:0.541" fill="#868c8c" d="M 223.5,516.5 C 225.078,521.583 225.745,526.916 225.5,532.5C 224.335,527.367 223.668,522.034 223.5,516.5 Z"/></g>
<g><path style="opacity:0.486" fill="#818686" d="M 194.5,524.5 C 195.973,527.017 196.64,529.85 196.5,533C 196.494,535.033 196.161,536.866 195.5,538.5C 195.563,533.797 195.229,529.13 194.5,524.5 Z"/></g>
<g><path style="opacity:1" fill="#565845" d="M 629.5,528.5 C 641.428,530.125 653.428,531.125 665.5,531.5C 653.782,531.188 642.116,531.521 630.5,532.5C 629.571,531.311 629.238,529.978 629.5,528.5 Z"/></g>
<g><path style="opacity:0.592" fill="#747b79" d="M 868.5,524.5 C 869.991,527.186 870.657,530.186 870.5,533.5C 870.713,536.527 870.047,539.193 868.5,541.5C 869.768,535.842 869.768,530.175 868.5,524.5 Z"/></g>
<g><path style="opacity:0.408" fill="#929691" d="M 797.5,535.5 C 797.473,541.051 796.806,546.384 795.5,551.5C 795.376,545.931 796.043,540.598 797.5,535.5 Z"/></g>
<g><path style="opacity:0.6" fill="#777d80" d="M 164.5,553.5 C 170.508,554.774 176.508,554.774 182.5,553.5C 182.082,554.222 181.416,554.722 180.5,555C 178.333,555.167 176.167,555.333 174,555.5C 170.523,555.672 167.356,555.006 164.5,553.5 Z"/></g>
<g><path style="opacity:0.125" fill="#a1a9a8" d="M 227.5,547.5 C 229.467,557.95 230.8,568.617 231.5,579.5C 229.346,569.07 228.012,558.403 227.5,547.5 Z"/></g>
<g><path style="opacity:0.439" fill="#7c8380" d="M 857.5,553.5 C 854.644,555.006 851.477,555.672 848,555.5C 845.639,555.496 843.473,555.163 841.5,554.5C 846.87,554.608 852.203,554.275 857.5,553.5 Z"/></g>
<g><path style="opacity:0.2" fill="#a3a9a4" d="M 795.5,551.5 C 795.556,556.731 794.889,561.731 793.5,566.5C 793.444,561.269 794.111,556.269 795.5,551.5 Z"/></g>
<g><path style="opacity:1" fill="#5a5b46" d="M 259.5,550.5 C 260.889,555.269 261.556,560.269 261.5,565.5C 260.111,560.731 259.444,555.731 259.5,550.5 Z"/></g>
<g><path style="opacity:1" fill="#252e32" d="M 255.5,518.5 C 257.359,529.084 258.692,539.751 259.5,550.5C 259.444,555.731 260.111,560.731 261.5,565.5C 263.658,578.101 265.325,590.767 266.5,603.5C 266.302,608.75 266.969,613.75 268.5,618.5C 270.966,640.151 273.633,661.817 276.5,683.5C 275.109,681.04 273.942,678.374 273,675.5C 272.333,676.167 271.667,676.833 271,677.5C 270.297,670.313 270.464,663.147 271.5,656C 265.933,631.58 262.766,606.747 262,581.5C 261.885,578.992 260.885,576.992 259,575.5C 258.127,575.735 257.293,576.069 256.5,576.5C 255.686,578.766 255.186,581.1 255,583.5C 253.977,582.4 253.477,581.067 253.5,579.5C 255.052,575.044 255.885,570.377 256,565.5C 256.333,566.833 256.667,568.167 257,569.5C 257.654,559.45 257.154,549.45 255.5,539.5C 256.179,533.701 255.846,527.868 254.5,522C 254.514,520.615 254.848,519.449 255.5,518.5 Z"/></g>
<g><path style="opacity:0.294" fill="#9da59c" d="M 793.5,568.5 C 793.392,573.71 792.725,578.71 791.5,583.5C 791.302,578.25 791.969,573.25 793.5,568.5 Z"/></g>
<g><path style="opacity:1" fill="#e7c76a" d="M 664.5,591.5 C 652.76,591.876 641.094,592.876 629.5,594.5C 629.5,593.5 629.5,592.5 629.5,591.5C 641.167,591.5 652.833,591.5 664.5,591.5 Z"/></g>
<g><path style="opacity:0.439" fill="#8d9491" d="M 791.5,583.5 C 791.392,588.71 790.725,593.71 789.5,598.5C 789.302,593.25 789.969,588.25 791.5,583.5 Z"/></g>
<g><path style="opacity:0.247" fill="#9a9f9e" d="M 789.5,598.5 C 789.404,604.373 788.737,610.04 787.5,615.5C 787.321,609.596 787.988,603.929 789.5,598.5 Z"/></g>
<g><path style="opacity:0.999" fill="#fe8080" d="M 825.5,602.5 C 834.866,602.372 844.2,602.872 853.5,604C 860.661,606.808 865.161,611.974 867,619.5C 852.619,726.835 798.785,807.668 705.5,862C 652.842,890.7 596.508,903.533 536.5,900.5C 536.666,907.508 536.5,914.508 536,921.5C 530.472,932.786 521.972,935.953 510.5,931C 490.332,910.499 469.832,890.332 449,870.5C 446.102,867.37 444.268,863.703 443.5,859.5C 443.763,856.972 444.596,854.639 446,852.5C 467.167,831.333 488.333,810.167 509.5,789C 521.914,781.819 530.747,784.986 536,798.5C 536.5,805.158 536.666,811.825 536.5,818.5C 580.961,822.242 622.461,812.908 661,790.5C 684.166,791.928 707.332,791.761 730.5,790C 757.947,783.367 777.447,767.201 789,741.5C 792.148,733.389 794.482,725.056 796,716.5C 800.886,683.527 805.552,650.527 810,617.5C 812.131,609.213 817.298,604.213 825.5,602.5 Z"/></g>
<g><path style="opacity:0.439" fill="#919994" d="M 233.5,597.5 C 235.104,601.9 235.771,606.566 235.5,611.5C 234.199,607.057 233.532,602.391 233.5,597.5 Z"/></g>
<g><path style="opacity:1" fill="#69664f" d="M 266.5,603.5 C 267.725,608.29 268.392,613.29 268.5,618.5C 266.969,613.75 266.302,608.75 266.5,603.5 Z"/></g>
<g><path style="opacity:1" fill="#5d6569" d="M 784.5,639.5 C 783.976,647.034 782.976,654.368 781.5,661.5C 781.979,657.566 781.312,653.899 779.5,650.5C 780.325,649.614 781.325,649.281 782.5,649.5C 782.322,645.878 782.989,642.544 784.5,639.5 Z"/></g>
<g><path style="opacity:0.373" fill="#9aa19f" d="M 240.5,655.5 C 241.889,660.269 242.556,665.269 242.5,670.5C 241.111,665.731 240.444,660.731 240.5,655.5 Z"/></g>
<g><path style="opacity:0.42" fill="#909590" d="M 781.5,663.5 C 781.31,668.37 780.644,673.036 779.5,677.5C 779.229,672.566 779.896,667.9 781.5,663.5 Z"/></g>
<g><path style="opacity:0.027" fill="#9b9f9d" d="M 779.5,677.5 C 779.556,682.731 778.889,687.731 777.5,692.5C 777.302,687.25 777.969,682.25 779.5,677.5 Z"/></g>
<g><path style="opacity:0.525" fill="#7f8684" d="M 777.5,693.5 C 777.14,701.056 776.14,708.389 774.5,715.5C 774.588,707.9 775.588,700.566 777.5,693.5 Z"/></g>
<g><path style="opacity:1" fill="#0d161d" d="M 299.5,736.5 C 439.472,737.495 579.472,737.828 719.5,737.5C 651.54,738.17 582.207,738.503 511.5,738.5C 441.5,738.333 371.5,738.167 301.5,738C 300.584,737.722 299.918,737.222 299.5,736.5 Z"/></g>
<g><path style="opacity:1" fill="#fee580" d="M 198.5,765.5 C 215.17,765.333 231.837,765.5 248.5,766C 258.546,775.111 269.712,782.611 282,788.5C 282.667,807.167 282.667,825.833 282,844.5C 278.825,855.675 271.658,862.842 260.5,866C 239.5,866.667 218.5,866.667 197.5,866C 189.205,862.37 183.705,856.203 181,847.5C 180.333,827.167 180.333,806.833 181,786.5C 183.094,776.275 188.927,769.275 198.5,765.5 Z"/></g>
<g><path style="opacity:1" fill="#14212b" d="M 721.5,768.5 C 580.168,767.859 438.834,767.359 297.5,767C 368.167,766.833 438.833,766.667 509.5,766.5C 580.503,766.5 651.17,767.167 721.5,768.5 Z"/></g>
<g><path style="opacity:1" fill="#586064" d="M 381.5,831.5 C 387.168,829.939 392.168,831.272 396.5,835.5C 391.702,833.449 386.702,832.116 381.5,831.5 Z"/></g>
<g><path style="opacity:1" fill="#1b2b37" d="M 381.5,831.5 C 386.702,832.116 391.702,833.449 396.5,835.5C 398.017,835.511 399.184,836.177 400,837.5C 402.157,839.817 403.657,842.484 404.5,845.5C 405.229,850.13 405.563,854.797 405.5,859.5C 403.32,866.889 398.653,871.889 391.5,874.5C 388.167,874.833 384.833,875.167 381.5,875.5C 374.571,874.703 369.238,871.37 365.5,865.5C 365.286,863.856 365.62,862.356 366.5,861C 364.404,859.066 363.404,856.566 363.5,853.5C 363.724,850.145 364.057,846.812 364.5,843.5C 366.656,837.846 370.656,834.012 376.5,832C 378.134,831.506 379.801,831.34 381.5,831.5 Z"/></g>
<g><path style="opacity:1" fill="#5d6665" d="M 364.5,843.5 C 364.057,846.812 363.724,850.145 363.5,853.5C 363.404,856.566 364.404,859.066 366.5,861C 365.62,862.356 365.286,863.856 365.5,865.5C 360.746,858.333 360.413,851 364.5,843.5 Z"/></g>
<g><path style="opacity:0.404" fill="#939796" d="M 404.5,845.5 C 405.973,848.017 406.64,850.85 406.5,854C 406.494,856.033 406.161,857.866 405.5,859.5C 405.563,854.797 405.229,850.13 404.5,845.5 Z"/></g>
<g><path style="opacity:0.039" fill="#c6cdcc" d="M 391.5,874.5 C 388.263,876.376 384.93,876.71 381.5,875.5C 384.833,875.167 388.167,874.833 391.5,874.5 Z"/></g>
</svg>
